<mxfile host="app.diagrams.net" modified="2024-04-22T07:57:33.451Z" agent="Mozilla/5.0 (Windows NT 10.0; Win64; x64) AppleWebKit/537.36 (KHTML, like Gecko) Chrome/124.0.0.0 Safari/537.36" etag="uUFnPUPIRFU8iJfD9U4I" version="24.2.7" type="github">
  <diagram name="Page-1" id="GD1kt4SWZKxpVN6oDa3t">
    <mxGraphModel dx="756" dy="392" grid="1" gridSize="10" guides="1" tooltips="1" connect="1" arrows="1" fold="1" page="1" pageScale="1" pageWidth="850" pageHeight="1100" math="0" shadow="0">
      <root>
        <mxCell id="0" />
        <mxCell id="1" parent="0" />
        <mxCell id="swsAx8AIMfsaj-1arG7I-2" value="Kunde" style="swimlane;whiteSpace=wrap;html=1;" vertex="1" parent="1">
          <mxGeometry x="80" y="120" width="320" height="640" as="geometry" />
        </mxCell>
        <mxCell id="swsAx8AIMfsaj-1arG7I-4" value="" style="ellipse;whiteSpace=wrap;html=1;aspect=fixed;fillStyle=solid;fillColor=#000000;" vertex="1" parent="swsAx8AIMfsaj-1arG7I-2">
          <mxGeometry x="155" y="60" width="10" height="10" as="geometry" />
        </mxCell>
        <mxCell id="swsAx8AIMfsaj-1arG7I-6" value="Fahrzeugbuchung anfragen" style="rounded=1;whiteSpace=wrap;html=1;" vertex="1" parent="swsAx8AIMfsaj-1arG7I-2">
          <mxGeometry x="105" y="135" width="110" height="50" as="geometry" />
        </mxCell>
        <mxCell id="swsAx8AIMfsaj-1arG7I-9" value="" style="ellipse;whiteSpace=wrap;html=1;aspect=fixed;" vertex="1" parent="swsAx8AIMfsaj-1arG7I-2">
          <mxGeometry x="217" y="288" width="20" height="20" as="geometry" />
        </mxCell>
        <mxCell id="swsAx8AIMfsaj-1arG7I-11" value="" style="ellipse;whiteSpace=wrap;html=1;aspect=fixed;fillStyle=solid;fillColor=#000000;" vertex="1" parent="swsAx8AIMfsaj-1arG7I-2">
          <mxGeometry x="222" y="293" width="10" height="10" as="geometry" />
        </mxCell>
        <mxCell id="swsAx8AIMfsaj-1arG7I-29" value="[Kein Fahrzeug nach Wünsch]" style="text;html=1;align=center;verticalAlign=middle;whiteSpace=wrap;rounded=0;" vertex="1" parent="swsAx8AIMfsaj-1arG7I-2">
          <mxGeometry x="220" y="205" width="100" height="30" as="geometry" />
        </mxCell>
        <mxCell id="swsAx8AIMfsaj-1arG7I-33" style="edgeStyle=orthogonalEdgeStyle;rounded=0;orthogonalLoop=1;jettySize=auto;html=1;exitX=0.5;exitY=1;exitDx=0;exitDy=0;entryX=0.5;entryY=0;entryDx=0;entryDy=0;" edge="1" parent="swsAx8AIMfsaj-1arG7I-2" source="swsAx8AIMfsaj-1arG7I-32" target="swsAx8AIMfsaj-1arG7I-9">
          <mxGeometry relative="1" as="geometry" />
        </mxCell>
        <mxCell id="swsAx8AIMfsaj-1arG7I-34" style="edgeStyle=orthogonalEdgeStyle;rounded=0;orthogonalLoop=1;jettySize=auto;html=1;exitX=0;exitY=0.5;exitDx=0;exitDy=0;entryX=0.5;entryY=0;entryDx=0;entryDy=0;" edge="1" parent="swsAx8AIMfsaj-1arG7I-2" source="swsAx8AIMfsaj-1arG7I-32" target="swsAx8AIMfsaj-1arG7I-35">
          <mxGeometry relative="1" as="geometry">
            <mxPoint x="120" y="270" as="targetPoint" />
          </mxGeometry>
        </mxCell>
        <mxCell id="swsAx8AIMfsaj-1arG7I-32" value="" style="rhombus;whiteSpace=wrap;html=1;" vertex="1" parent="swsAx8AIMfsaj-1arG7I-2">
          <mxGeometry x="218" y="231" width="20" height="20" as="geometry" />
        </mxCell>
        <mxCell id="swsAx8AIMfsaj-1arG7I-35" value="Farhzeug aussuchen" style="rounded=1;whiteSpace=wrap;html=1;" vertex="1" parent="swsAx8AIMfsaj-1arG7I-2">
          <mxGeometry x="85" y="303" width="70" height="50" as="geometry" />
        </mxCell>
        <mxCell id="swsAx8AIMfsaj-1arG7I-36" value="[sonst]" style="text;html=1;align=center;verticalAlign=middle;whiteSpace=wrap;rounded=0;" vertex="1" parent="swsAx8AIMfsaj-1arG7I-2">
          <mxGeometry x="48" y="249" width="84" height="16" as="geometry" />
        </mxCell>
        <mxCell id="swsAx8AIMfsaj-1arG7I-49" style="edgeStyle=orthogonalEdgeStyle;rounded=0;orthogonalLoop=1;jettySize=auto;html=1;exitX=0.75;exitY=1;exitDx=0;exitDy=0;entryX=0.5;entryY=0;entryDx=0;entryDy=0;" edge="1" parent="swsAx8AIMfsaj-1arG7I-2" source="swsAx8AIMfsaj-1arG7I-44" target="swsAx8AIMfsaj-1arG7I-47">
          <mxGeometry relative="1" as="geometry" />
        </mxCell>
        <mxCell id="swsAx8AIMfsaj-1arG7I-52" style="edgeStyle=orthogonalEdgeStyle;rounded=0;orthogonalLoop=1;jettySize=auto;html=1;exitX=0.25;exitY=1;exitDx=0;exitDy=0;entryX=0.5;entryY=0;entryDx=0;entryDy=0;" edge="1" parent="swsAx8AIMfsaj-1arG7I-2" source="swsAx8AIMfsaj-1arG7I-44" target="swsAx8AIMfsaj-1arG7I-46">
          <mxGeometry relative="1" as="geometry" />
        </mxCell>
        <mxCell id="swsAx8AIMfsaj-1arG7I-44" value="" style="rounded=0;whiteSpace=wrap;html=1;" vertex="1" parent="swsAx8AIMfsaj-1arG7I-2">
          <mxGeometry x="70" y="393" width="120" height="10" as="geometry" />
        </mxCell>
        <mxCell id="swsAx8AIMfsaj-1arG7I-46" value="Buchung zahlen" style="rounded=1;whiteSpace=wrap;html=1;" vertex="1" parent="swsAx8AIMfsaj-1arG7I-2">
          <mxGeometry x="48" y="430" width="70" height="40" as="geometry" />
        </mxCell>
        <mxCell id="swsAx8AIMfsaj-1arG7I-47" value="Fahrzeug und Buchungsbeleg übernehmen" style="rounded=1;whiteSpace=wrap;html=1;" vertex="1" parent="swsAx8AIMfsaj-1arG7I-2">
          <mxGeometry x="149" y="443" width="151" height="40" as="geometry" />
        </mxCell>
        <mxCell id="swsAx8AIMfsaj-1arG7I-56" style="edgeStyle=orthogonalEdgeStyle;rounded=0;orthogonalLoop=1;jettySize=auto;html=1;exitX=0.5;exitY=1;exitDx=0;exitDy=0;entryX=0.5;entryY=0;entryDx=0;entryDy=0;" edge="1" parent="swsAx8AIMfsaj-1arG7I-2" source="swsAx8AIMfsaj-1arG7I-53" target="swsAx8AIMfsaj-1arG7I-60">
          <mxGeometry relative="1" as="geometry">
            <mxPoint x="130" y="568" as="targetPoint" />
          </mxGeometry>
        </mxCell>
        <mxCell id="swsAx8AIMfsaj-1arG7I-53" value="" style="rounded=0;whiteSpace=wrap;html=1;" vertex="1" parent="swsAx8AIMfsaj-1arG7I-2">
          <mxGeometry x="70" y="528" width="120" height="10" as="geometry" />
        </mxCell>
        <mxCell id="swsAx8AIMfsaj-1arG7I-54" style="edgeStyle=orthogonalEdgeStyle;rounded=0;orthogonalLoop=1;jettySize=auto;html=1;exitX=0.5;exitY=1;exitDx=0;exitDy=0;entryX=0.106;entryY=0;entryDx=0;entryDy=0;entryPerimeter=0;" edge="1" parent="swsAx8AIMfsaj-1arG7I-2" source="swsAx8AIMfsaj-1arG7I-46" target="swsAx8AIMfsaj-1arG7I-53">
          <mxGeometry relative="1" as="geometry" />
        </mxCell>
        <mxCell id="swsAx8AIMfsaj-1arG7I-55" style="edgeStyle=orthogonalEdgeStyle;rounded=0;orthogonalLoop=1;jettySize=auto;html=1;exitX=0.5;exitY=1;exitDx=0;exitDy=0;entryX=0.928;entryY=0.2;entryDx=0;entryDy=0;entryPerimeter=0;" edge="1" parent="swsAx8AIMfsaj-1arG7I-2" source="swsAx8AIMfsaj-1arG7I-47" target="swsAx8AIMfsaj-1arG7I-53">
          <mxGeometry relative="1" as="geometry" />
        </mxCell>
        <mxCell id="swsAx8AIMfsaj-1arG7I-60" value="" style="ellipse;whiteSpace=wrap;html=1;aspect=fixed;" vertex="1" parent="swsAx8AIMfsaj-1arG7I-2">
          <mxGeometry x="120" y="578" width="20" height="20" as="geometry" />
        </mxCell>
        <mxCell id="swsAx8AIMfsaj-1arG7I-61" value="" style="ellipse;whiteSpace=wrap;html=1;aspect=fixed;fillStyle=solid;fillColor=#000000;" vertex="1" parent="swsAx8AIMfsaj-1arG7I-2">
          <mxGeometry x="125" y="583" width="10" height="10" as="geometry" />
        </mxCell>
        <mxCell id="swsAx8AIMfsaj-1arG7I-3" value="Mitarbeiter" style="swimlane;whiteSpace=wrap;html=1;" vertex="1" parent="1">
          <mxGeometry x="400" y="120" width="320" height="640" as="geometry" />
        </mxCell>
        <mxCell id="swsAx8AIMfsaj-1arG7I-7" value="Verfügbare Fahrzeuge ermitteln und mitteilen" style="rounded=1;whiteSpace=wrap;html=1;" vertex="1" parent="swsAx8AIMfsaj-1arG7I-3">
          <mxGeometry x="100" y="130" width="120" height="60" as="geometry" />
        </mxCell>
        <mxCell id="swsAx8AIMfsaj-1arG7I-15" value="" style="endArrow=classic;html=1;rounded=0;exitX=0.75;exitY=1;exitDx=0;exitDy=0;" edge="1" parent="swsAx8AIMfsaj-1arG7I-3" source="swsAx8AIMfsaj-1arG7I-7">
          <mxGeometry width="50" height="50" relative="1" as="geometry">
            <mxPoint x="-20" y="200" as="sourcePoint" />
            <mxPoint x="190" y="230" as="targetPoint" />
          </mxGeometry>
        </mxCell>
        <mxCell id="swsAx8AIMfsaj-1arG7I-26" style="edgeStyle=orthogonalEdgeStyle;rounded=0;orthogonalLoop=1;jettySize=auto;html=1;exitX=1;exitY=0.5;exitDx=0;exitDy=0;" edge="1" parent="swsAx8AIMfsaj-1arG7I-3" source="swsAx8AIMfsaj-1arG7I-23">
          <mxGeometry relative="1" as="geometry">
            <mxPoint x="240" y="260" as="targetPoint" />
          </mxGeometry>
        </mxCell>
        <mxCell id="swsAx8AIMfsaj-1arG7I-23" value="" style="rhombus;whiteSpace=wrap;html=1;" vertex="1" parent="swsAx8AIMfsaj-1arG7I-3">
          <mxGeometry x="180" y="228" width="20" height="20" as="geometry" />
        </mxCell>
        <mxCell id="swsAx8AIMfsaj-1arG7I-27" value="" style="ellipse;whiteSpace=wrap;html=1;aspect=fixed;" vertex="1" parent="swsAx8AIMfsaj-1arG7I-3">
          <mxGeometry x="230" y="262" width="20" height="20" as="geometry" />
        </mxCell>
        <mxCell id="swsAx8AIMfsaj-1arG7I-28" value="" style="ellipse;whiteSpace=wrap;html=1;aspect=fixed;fillStyle=solid;fillColor=#000000;" vertex="1" parent="swsAx8AIMfsaj-1arG7I-3">
          <mxGeometry x="235" y="267" width="10" height="10" as="geometry" />
        </mxCell>
        <mxCell id="swsAx8AIMfsaj-1arG7I-30" value="[sonst]" style="text;html=1;align=center;verticalAlign=middle;whiteSpace=wrap;rounded=0;" vertex="1" parent="swsAx8AIMfsaj-1arG7I-3">
          <mxGeometry x="25" y="212" width="100" height="30" as="geometry" />
        </mxCell>
        <mxCell id="swsAx8AIMfsaj-1arG7I-31" value="[Kein Fahrzeug vorhanen]" style="text;html=1;align=center;verticalAlign=middle;whiteSpace=wrap;rounded=0;" vertex="1" parent="swsAx8AIMfsaj-1arG7I-3">
          <mxGeometry x="202" y="207" width="100" height="30" as="geometry" />
        </mxCell>
        <mxCell id="swsAx8AIMfsaj-1arG7I-41" value="Fahrzeug buchen" style="rounded=1;whiteSpace=wrap;html=1;" vertex="1" parent="swsAx8AIMfsaj-1arG7I-3">
          <mxGeometry x="68" y="303" width="70" height="50" as="geometry" />
        </mxCell>
        <mxCell id="swsAx8AIMfsaj-1arG7I-5" value="" style="endArrow=classic;html=1;rounded=0;exitX=0.5;exitY=1;exitDx=0;exitDy=0;" edge="1" parent="1" source="swsAx8AIMfsaj-1arG7I-4">
          <mxGeometry width="50" height="50" relative="1" as="geometry">
            <mxPoint x="380" y="320" as="sourcePoint" />
            <mxPoint x="240" y="250" as="targetPoint" />
          </mxGeometry>
        </mxCell>
        <mxCell id="swsAx8AIMfsaj-1arG7I-8" value="" style="endArrow=classic;html=1;rounded=0;exitX=1;exitY=0.5;exitDx=0;exitDy=0;entryX=0;entryY=0.5;entryDx=0;entryDy=0;" edge="1" parent="1" source="swsAx8AIMfsaj-1arG7I-6" target="swsAx8AIMfsaj-1arG7I-7">
          <mxGeometry width="50" height="50" relative="1" as="geometry">
            <mxPoint x="380" y="320" as="sourcePoint" />
            <mxPoint x="430" y="270" as="targetPoint" />
          </mxGeometry>
        </mxCell>
        <mxCell id="swsAx8AIMfsaj-1arG7I-22" value="" style="endArrow=classic;html=1;rounded=0;exitX=0;exitY=0.5;exitDx=0;exitDy=0;" edge="1" parent="1" source="swsAx8AIMfsaj-1arG7I-23">
          <mxGeometry width="50" height="50" relative="1" as="geometry">
            <mxPoint x="570" y="360" as="sourcePoint" />
            <mxPoint x="320" y="361" as="targetPoint" />
          </mxGeometry>
        </mxCell>
        <mxCell id="swsAx8AIMfsaj-1arG7I-40" style="edgeStyle=orthogonalEdgeStyle;rounded=0;orthogonalLoop=1;jettySize=auto;html=1;exitX=1;exitY=0.5;exitDx=0;exitDy=0;entryX=0;entryY=0.5;entryDx=0;entryDy=0;" edge="1" parent="1" source="swsAx8AIMfsaj-1arG7I-35" target="swsAx8AIMfsaj-1arG7I-41">
          <mxGeometry relative="1" as="geometry">
            <mxPoint x="480" y="448" as="targetPoint" />
          </mxGeometry>
        </mxCell>
        <mxCell id="swsAx8AIMfsaj-1arG7I-45" style="edgeStyle=orthogonalEdgeStyle;rounded=0;orthogonalLoop=1;jettySize=auto;html=1;exitX=0.5;exitY=1;exitDx=0;exitDy=0;" edge="1" parent="1" source="swsAx8AIMfsaj-1arG7I-41" target="swsAx8AIMfsaj-1arG7I-44">
          <mxGeometry relative="1" as="geometry" />
        </mxCell>
      </root>
    </mxGraphModel>
  </diagram>
</mxfile>
